<mxfile host="app.diagrams.net" modified="2023-05-28T20:50:05.588Z" agent="Mozilla/5.0 (Macintosh; Intel Mac OS X 10_11_6) AppleWebKit/537.36 (KHTML, like Gecko) Chrome/103.0.0.0 Safari/537.36" etag="fZLL5jmosAm5uBjW68Ke" version="21.3.5" type="google">
  <diagram name="Page-1" id="1QbScK5wxTsoiBnjGym_">
    <mxGraphModel grid="1" page="1" gridSize="10" guides="1" tooltips="1" connect="1" arrows="1" fold="1" pageScale="1" pageWidth="850" pageHeight="1100" math="0" shadow="0">
      <root>
        <mxCell id="0" />
        <mxCell id="1" parent="0" />
        <mxCell id="Xri7i-WClRXvd3JNJ8lY-3" value="" style="edgeStyle=orthogonalEdgeStyle;rounded=0;orthogonalLoop=1;jettySize=auto;html=1;" edge="1" parent="1" source="Xri7i-WClRXvd3JNJ8lY-1" target="Xri7i-WClRXvd3JNJ8lY-2">
          <mxGeometry relative="1" as="geometry" />
        </mxCell>
        <mxCell id="Xri7i-WClRXvd3JNJ8lY-1" value="start initial connection" style="ellipse;whiteSpace=wrap;html=1;aspect=fixed;fillColor=#FF0000;" vertex="1" parent="1">
          <mxGeometry x="40" y="40" width="80" height="80" as="geometry" />
        </mxCell>
        <mxCell id="Xri7i-WClRXvd3JNJ8lY-5" value="" style="edgeStyle=orthogonalEdgeStyle;rounded=0;orthogonalLoop=1;jettySize=auto;html=1;" edge="1" parent="1" source="Xri7i-WClRXvd3JNJ8lY-2" target="Xri7i-WClRXvd3JNJ8lY-4">
          <mxGeometry relative="1" as="geometry" />
        </mxCell>
        <mxCell id="Xri7i-WClRXvd3JNJ8lY-2" value="server waits for request" style="whiteSpace=wrap;html=1;fillColor=#E6FFCC;" vertex="1" parent="1">
          <mxGeometry x="150" y="50" width="120" height="60" as="geometry" />
        </mxCell>
        <mxCell id="Xri7i-WClRXvd3JNJ8lY-11" style="edgeStyle=orthogonalEdgeStyle;rounded=0;orthogonalLoop=1;jettySize=auto;html=1;exitX=1;exitY=0.5;exitDx=0;exitDy=0;entryX=0;entryY=0.5;entryDx=0;entryDy=0;" edge="1" parent="1" source="Xri7i-WClRXvd3JNJ8lY-4" target="Xri7i-WClRXvd3JNJ8lY-8">
          <mxGeometry relative="1" as="geometry" />
        </mxCell>
        <mxCell id="Xri7i-WClRXvd3JNJ8lY-4" value="client 1 sends request to start a game and waits for response" style="whiteSpace=wrap;html=1;fillColor=#E6FFCC;" vertex="1" parent="1">
          <mxGeometry x="290" y="50" width="120" height="60" as="geometry" />
        </mxCell>
        <mxCell id="Xri7i-WClRXvd3JNJ8lY-13" value="" style="edgeStyle=orthogonalEdgeStyle;rounded=0;orthogonalLoop=1;jettySize=auto;html=1;" edge="1" parent="1" source="Xri7i-WClRXvd3JNJ8lY-8" target="Xri7i-WClRXvd3JNJ8lY-12">
          <mxGeometry relative="1" as="geometry" />
        </mxCell>
        <mxCell id="Xri7i-WClRXvd3JNJ8lY-8" value="server processes request from client 1" style="whiteSpace=wrap;html=1;fillColor=#E6FFCC;" vertex="1" parent="1">
          <mxGeometry x="430" y="50" width="120" height="60" as="geometry" />
        </mxCell>
        <mxCell id="Xri7i-WClRXvd3JNJ8lY-15" value="" style="edgeStyle=orthogonalEdgeStyle;rounded=0;orthogonalLoop=1;jettySize=auto;html=1;" edge="1" parent="1" source="Xri7i-WClRXvd3JNJ8lY-12" target="Xri7i-WClRXvd3JNJ8lY-14">
          <mxGeometry relative="1" as="geometry">
            <Array as="points">
              <mxPoint x="720" y="80" />
              <mxPoint x="720" y="130" />
              <mxPoint x="100" y="130" />
            </Array>
          </mxGeometry>
        </mxCell>
        <mxCell id="Xri7i-WClRXvd3JNJ8lY-12" value="server puts client 1 on waiting list and notifies client 1" style="whiteSpace=wrap;html=1;fillColor=#E6FFCC;" vertex="1" parent="1">
          <mxGeometry x="580" y="50" width="120" height="60" as="geometry" />
        </mxCell>
        <mxCell id="Xri7i-WClRXvd3JNJ8lY-18" value="" style="edgeStyle=orthogonalEdgeStyle;rounded=0;orthogonalLoop=1;jettySize=auto;html=1;" edge="1" parent="1" source="Xri7i-WClRXvd3JNJ8lY-14" target="Xri7i-WClRXvd3JNJ8lY-17">
          <mxGeometry relative="1" as="geometry" />
        </mxCell>
        <mxCell id="Xri7i-WClRXvd3JNJ8lY-14" value="client 1 receives notification and updates its own screen" style="whiteSpace=wrap;html=1;fillColor=#E6FFCC;" vertex="1" parent="1">
          <mxGeometry x="40" y="160" width="120" height="60" as="geometry" />
        </mxCell>
        <mxCell id="Xri7i-WClRXvd3JNJ8lY-16" value="&lt;font style=&quot;font-size: 18px;&quot;&gt;Initial Connection&lt;/font&gt;" style="rounded=0;whiteSpace=wrap;html=1;fillColor=#FFFF00;fontStyle=1" vertex="1" parent="1">
          <mxGeometry width="400" height="30" as="geometry" />
        </mxCell>
        <mxCell id="Xri7i-WClRXvd3JNJ8lY-20" value="" style="edgeStyle=orthogonalEdgeStyle;rounded=0;orthogonalLoop=1;jettySize=auto;html=1;" edge="1" parent="1" source="Xri7i-WClRXvd3JNJ8lY-17" target="Xri7i-WClRXvd3JNJ8lY-19">
          <mxGeometry relative="1" as="geometry" />
        </mxCell>
        <mxCell id="Xri7i-WClRXvd3JNJ8lY-17" value="server waits for request" style="whiteSpace=wrap;html=1;fillColor=#E6FFCC;" vertex="1" parent="1">
          <mxGeometry x="190" y="160" width="120" height="60" as="geometry" />
        </mxCell>
        <mxCell id="Xri7i-WClRXvd3JNJ8lY-22" value="" style="edgeStyle=orthogonalEdgeStyle;rounded=0;orthogonalLoop=1;jettySize=auto;html=1;" edge="1" parent="1" source="Xri7i-WClRXvd3JNJ8lY-19" target="Xri7i-WClRXvd3JNJ8lY-21">
          <mxGeometry relative="1" as="geometry" />
        </mxCell>
        <mxCell id="Xri7i-WClRXvd3JNJ8lY-19" value="client 2 sends request to start a game and waits for response" style="whiteSpace=wrap;html=1;fillColor=#E6FFCC;" vertex="1" parent="1">
          <mxGeometry x="340" y="160" width="120" height="60" as="geometry" />
        </mxCell>
        <mxCell id="Xri7i-WClRXvd3JNJ8lY-24" value="" style="edgeStyle=orthogonalEdgeStyle;rounded=0;orthogonalLoop=1;jettySize=auto;html=1;" edge="1" parent="1" source="Xri7i-WClRXvd3JNJ8lY-21" target="Xri7i-WClRXvd3JNJ8lY-23">
          <mxGeometry relative="1" as="geometry" />
        </mxCell>
        <mxCell id="Xri7i-WClRXvd3JNJ8lY-21" value="server processes request from client 2" style="whiteSpace=wrap;html=1;fillColor=#E6FFCC;" vertex="1" parent="1">
          <mxGeometry x="490" y="160" width="120" height="60" as="geometry" />
        </mxCell>
        <mxCell id="Xri7i-WClRXvd3JNJ8lY-26" value="" style="edgeStyle=orthogonalEdgeStyle;rounded=0;orthogonalLoop=1;jettySize=auto;html=1;" edge="1" parent="1" source="Xri7i-WClRXvd3JNJ8lY-23" target="Xri7i-WClRXvd3JNJ8lY-25">
          <mxGeometry relative="1" as="geometry">
            <Array as="points">
              <mxPoint x="700" y="240" />
              <mxPoint x="100" y="240" />
            </Array>
          </mxGeometry>
        </mxCell>
        <mxCell id="Xri7i-WClRXvd3JNJ8lY-23" value="server pairs client 2 with client 1" style="whiteSpace=wrap;html=1;fillColor=#E6FFCC;" vertex="1" parent="1">
          <mxGeometry x="640" y="160" width="120" height="60" as="geometry" />
        </mxCell>
        <mxCell id="Xri7i-WClRXvd3JNJ8lY-28" value="" style="edgeStyle=orthogonalEdgeStyle;rounded=0;orthogonalLoop=1;jettySize=auto;html=1;" edge="1" parent="1" source="Xri7i-WClRXvd3JNJ8lY-25" target="Xri7i-WClRXvd3JNJ8lY-27">
          <mxGeometry relative="1" as="geometry" />
        </mxCell>
        <mxCell id="Xri7i-WClRXvd3JNJ8lY-25" value="server notifies both clients that game can begin" style="whiteSpace=wrap;html=1;fillColor=#E6FFCC;" vertex="1" parent="1">
          <mxGeometry x="40" y="260" width="120" height="60" as="geometry" />
        </mxCell>
        <mxCell id="Xri7i-WClRXvd3JNJ8lY-72" style="edgeStyle=orthogonalEdgeStyle;rounded=0;orthogonalLoop=1;jettySize=auto;html=1;exitX=1;exitY=0.5;exitDx=0;exitDy=0;entryX=0;entryY=0.5;entryDx=0;entryDy=0;" edge="1" parent="1" source="Xri7i-WClRXvd3JNJ8lY-27" target="Xri7i-WClRXvd3JNJ8lY-70">
          <mxGeometry relative="1" as="geometry" />
        </mxCell>
        <mxCell id="Xri7i-WClRXvd3JNJ8lY-27" value="game begins" style="whiteSpace=wrap;html=1;fillColor=#E6FFCC;" vertex="1" parent="1">
          <mxGeometry x="190" y="260" width="120" height="60" as="geometry" />
        </mxCell>
        <mxCell id="Xri7i-WClRXvd3JNJ8lY-29" value="&lt;font style=&quot;font-size: 18px;&quot;&gt;Game&lt;/font&gt;" style="rounded=0;whiteSpace=wrap;html=1;fillColor=#33FFFF;fontStyle=1" vertex="1" parent="1">
          <mxGeometry y="350" width="400" height="30" as="geometry" />
        </mxCell>
        <mxCell id="Xri7i-WClRXvd3JNJ8lY-38" value="" style="edgeStyle=orthogonalEdgeStyle;rounded=0;orthogonalLoop=1;jettySize=auto;html=1;" edge="1" parent="1" source="Xri7i-WClRXvd3JNJ8lY-30" target="Xri7i-WClRXvd3JNJ8lY-37">
          <mxGeometry relative="1" as="geometry" />
        </mxCell>
        <mxCell id="Xri7i-WClRXvd3JNJ8lY-30" value="server blocks client 2" style="whiteSpace=wrap;html=1;fillColor=#E6FFCC;" vertex="1" parent="1">
          <mxGeometry x="70" y="498" width="120" height="60" as="geometry" />
        </mxCell>
        <mxCell id="Xri7i-WClRXvd3JNJ8lY-34" value="" style="edgeStyle=orthogonalEdgeStyle;rounded=0;orthogonalLoop=1;jettySize=auto;html=1;" edge="1" parent="1" source="Xri7i-WClRXvd3JNJ8lY-31" target="Xri7i-WClRXvd3JNJ8lY-33">
          <mxGeometry relative="1" as="geometry" />
        </mxCell>
        <mxCell id="Xri7i-WClRXvd3JNJ8lY-31" value="client 1 makes a move" style="whiteSpace=wrap;html=1;fillColor=#E6FFCC;" vertex="1" parent="1">
          <mxGeometry x="357" y="498" width="120" height="60" as="geometry" />
        </mxCell>
        <mxCell id="Xri7i-WClRXvd3JNJ8lY-36" value="" style="edgeStyle=orthogonalEdgeStyle;rounded=0;orthogonalLoop=1;jettySize=auto;html=1;" edge="1" parent="1" source="Xri7i-WClRXvd3JNJ8lY-33" target="Xri7i-WClRXvd3JNJ8lY-35">
          <mxGeometry relative="1" as="geometry" />
        </mxCell>
        <mxCell id="Xri7i-WClRXvd3JNJ8lY-33" value="client 1 sends information to server about the move" style="whiteSpace=wrap;html=1;fillColor=#E6FFCC;" vertex="1" parent="1">
          <mxGeometry x="517" y="498" width="120" height="60" as="geometry" />
        </mxCell>
        <mxCell id="Xri7i-WClRXvd3JNJ8lY-41" value="" style="edgeStyle=orthogonalEdgeStyle;rounded=0;orthogonalLoop=1;jettySize=auto;html=1;" edge="1" parent="1" source="Xri7i-WClRXvd3JNJ8lY-35" target="Xri7i-WClRXvd3JNJ8lY-40">
          <mxGeometry relative="1" as="geometry">
            <Array as="points">
              <mxPoint x="727" y="578" />
              <mxPoint x="130" y="578" />
            </Array>
          </mxGeometry>
        </mxCell>
        <mxCell id="Xri7i-WClRXvd3JNJ8lY-35" value="server receives information from client 1; updates its own screen if needed" style="whiteSpace=wrap;html=1;fillColor=#E6FFCC;" vertex="1" parent="1">
          <mxGeometry x="667" y="498" width="120" height="60" as="geometry" />
        </mxCell>
        <mxCell id="Xri7i-WClRXvd3JNJ8lY-39" value="" style="edgeStyle=orthogonalEdgeStyle;rounded=0;orthogonalLoop=1;jettySize=auto;html=1;" edge="1" parent="1" source="Xri7i-WClRXvd3JNJ8lY-37" target="Xri7i-WClRXvd3JNJ8lY-31">
          <mxGeometry relative="1" as="geometry" />
        </mxCell>
        <mxCell id="Xri7i-WClRXvd3JNJ8lY-37" value="server waits for request" style="whiteSpace=wrap;html=1;fillColor=#E6FFCC;" vertex="1" parent="1">
          <mxGeometry x="210" y="498" width="120" height="60" as="geometry" />
        </mxCell>
        <mxCell id="Xri7i-WClRXvd3JNJ8lY-61" value="" style="edgeStyle=orthogonalEdgeStyle;rounded=0;orthogonalLoop=1;jettySize=auto;html=1;" edge="1" parent="1" source="Xri7i-WClRXvd3JNJ8lY-40" target="Xri7i-WClRXvd3JNJ8lY-60">
          <mxGeometry relative="1" as="geometry" />
        </mxCell>
        <mxCell id="Xri7i-WClRXvd3JNJ8lY-40" value="server sends information to both clients:&lt;br&gt;&lt;br&gt;1) nothing: client had clicked on an already selected square, OR&lt;br&gt;&lt;br&gt;2) game over: send status to both clients to update their own screens, OR&lt;br&gt;&lt;br&gt;3) valid move: send info to client 2 to update its screen" style="whiteSpace=wrap;html=1;fillColor=#E6FFCC;align=left;" vertex="1" parent="1">
          <mxGeometry x="70" y="598" width="120" height="240" as="geometry" />
        </mxCell>
        <mxCell id="Xri7i-WClRXvd3JNJ8lY-59" style="edgeStyle=orthogonalEdgeStyle;rounded=0;orthogonalLoop=1;jettySize=auto;html=1;entryX=0;entryY=0.5;entryDx=0;entryDy=0;" edge="1" parent="1" source="Xri7i-WClRXvd3JNJ8lY-42" target="Xri7i-WClRXvd3JNJ8lY-44">
          <mxGeometry relative="1" as="geometry" />
        </mxCell>
        <mxCell id="Xri7i-WClRXvd3JNJ8lY-42" value="client 1 receives one of three message from server and updates its own screen&lt;br&gt;&lt;br&gt;client 2 receives one of three messages from server and updates its own screen" style="whiteSpace=wrap;html=1;align=left;fillColor=#E6FFCC;" vertex="1" parent="1">
          <mxGeometry x="390" y="598" width="120" height="240" as="geometry" />
        </mxCell>
        <mxCell id="Xri7i-WClRXvd3JNJ8lY-65" value="" style="edgeStyle=orthogonalEdgeStyle;rounded=0;orthogonalLoop=1;jettySize=auto;html=1;" edge="1" parent="1" source="Xri7i-WClRXvd3JNJ8lY-44" target="Xri7i-WClRXvd3JNJ8lY-48">
          <mxGeometry relative="1" as="geometry" />
        </mxCell>
        <mxCell id="Xri7i-WClRXvd3JNJ8lY-44" value="client 2 makes a move" style="whiteSpace=wrap;html=1;align=center;fillColor=#E6FFCC;" vertex="1" parent="1">
          <mxGeometry x="550" y="598" width="120" height="60" as="geometry" />
        </mxCell>
        <mxCell id="Xri7i-WClRXvd3JNJ8lY-69" style="edgeStyle=orthogonalEdgeStyle;rounded=0;orthogonalLoop=1;jettySize=auto;html=1;entryX=0.558;entryY=0;entryDx=0;entryDy=0;entryPerimeter=0;" edge="1" parent="1" source="Xri7i-WClRXvd3JNJ8lY-46" target="Xri7i-WClRXvd3JNJ8lY-30">
          <mxGeometry relative="1" as="geometry" />
        </mxCell>
        <mxCell id="Xri7i-WClRXvd3JNJ8lY-46" value="repeat process with clients reversed" style="whiteSpace=wrap;html=1;fillColor=#FF66FF;" vertex="1" parent="1">
          <mxGeometry x="667" y="400" width="120" height="90" as="geometry" />
        </mxCell>
        <mxCell id="Xri7i-WClRXvd3JNJ8lY-51" value="" style="edgeStyle=orthogonalEdgeStyle;rounded=0;orthogonalLoop=1;jettySize=auto;html=1;" edge="1" parent="1" source="Xri7i-WClRXvd3JNJ8lY-48" target="Xri7i-WClRXvd3JNJ8lY-50">
          <mxGeometry relative="1" as="geometry" />
        </mxCell>
        <mxCell id="Xri7i-WClRXvd3JNJ8lY-52" value="YES" style="edgeLabel;html=1;align=center;verticalAlign=middle;resizable=0;points=[];" connectable="0" vertex="1" parent="Xri7i-WClRXvd3JNJ8lY-51">
          <mxGeometry x="0.075" y="2" relative="1" as="geometry">
            <mxPoint as="offset" />
          </mxGeometry>
        </mxCell>
        <mxCell id="Xri7i-WClRXvd3JNJ8lY-67" style="edgeStyle=orthogonalEdgeStyle;rounded=0;orthogonalLoop=1;jettySize=auto;html=1;entryX=1;entryY=0.5;entryDx=0;entryDy=0;" edge="1" parent="1" source="Xri7i-WClRXvd3JNJ8lY-48" target="Xri7i-WClRXvd3JNJ8lY-46">
          <mxGeometry relative="1" as="geometry">
            <Array as="points">
              <mxPoint x="840" y="628" />
              <mxPoint x="840" y="445" />
            </Array>
          </mxGeometry>
        </mxCell>
        <mxCell id="Xri7i-WClRXvd3JNJ8lY-68" value="NO" style="edgeLabel;html=1;align=center;verticalAlign=middle;resizable=0;points=[];" connectable="0" vertex="1" parent="Xri7i-WClRXvd3JNJ8lY-67">
          <mxGeometry x="-0.8881" y="-1" relative="1" as="geometry">
            <mxPoint as="offset" />
          </mxGeometry>
        </mxCell>
        <mxCell id="Xri7i-WClRXvd3JNJ8lY-48" value="game over" style="rhombus;whiteSpace=wrap;html=1;fillColor=#CCFFFF;" vertex="1" parent="1">
          <mxGeometry x="710" y="588" width="80" height="80" as="geometry" />
        </mxCell>
        <mxCell id="Xri7i-WClRXvd3JNJ8lY-50" value="stop game" style="ellipse;whiteSpace=wrap;html=1;fillColor=#FF0000;" vertex="1" parent="1">
          <mxGeometry x="710" y="748" width="80" height="80" as="geometry" />
        </mxCell>
        <mxCell id="Xri7i-WClRXvd3JNJ8lY-63" value="" style="edgeStyle=orthogonalEdgeStyle;rounded=0;orthogonalLoop=1;jettySize=auto;html=1;" edge="1" parent="1" source="Xri7i-WClRXvd3JNJ8lY-60" target="Xri7i-WClRXvd3JNJ8lY-62">
          <mxGeometry relative="1" as="geometry" />
        </mxCell>
        <mxCell id="Xri7i-WClRXvd3JNJ8lY-60" value="server blocks client 1" style="whiteSpace=wrap;html=1;align=center;fillColor=#E6FFCC;" vertex="1" parent="1">
          <mxGeometry x="230" y="598" width="120" height="60" as="geometry" />
        </mxCell>
        <mxCell id="Xri7i-WClRXvd3JNJ8lY-64" value="" style="edgeStyle=orthogonalEdgeStyle;rounded=0;orthogonalLoop=1;jettySize=auto;html=1;" edge="1" parent="1" source="Xri7i-WClRXvd3JNJ8lY-62" target="Xri7i-WClRXvd3JNJ8lY-42">
          <mxGeometry relative="1" as="geometry" />
        </mxCell>
        <mxCell id="Xri7i-WClRXvd3JNJ8lY-62" value="server unblocks &lt;br&gt;client 2" style="whiteSpace=wrap;html=1;fillColor=#E6FFCC;" vertex="1" parent="1">
          <mxGeometry x="230" y="688" width="120" height="60" as="geometry" />
        </mxCell>
        <mxCell id="Xri7i-WClRXvd3JNJ8lY-70" value="stop initial connection" style="ellipse;whiteSpace=wrap;html=1;aspect=fixed;fillColor=#FF0000;" vertex="1" parent="1">
          <mxGeometry x="360" y="250" width="80" height="80" as="geometry" />
        </mxCell>
        <mxCell id="Xri7i-WClRXvd3JNJ8lY-74" style="edgeStyle=orthogonalEdgeStyle;rounded=0;orthogonalLoop=1;jettySize=auto;html=1;entryX=0;entryY=0.5;entryDx=0;entryDy=0;" edge="1" parent="1" source="Xri7i-WClRXvd3JNJ8lY-73" target="Xri7i-WClRXvd3JNJ8lY-30">
          <mxGeometry relative="1" as="geometry" />
        </mxCell>
        <mxCell id="Xri7i-WClRXvd3JNJ8lY-73" value="start game" style="ellipse;whiteSpace=wrap;html=1;aspect=fixed;fillColor=#FF0000;" vertex="1" parent="1">
          <mxGeometry x="10" y="390" width="80" height="80" as="geometry" />
        </mxCell>
      </root>
    </mxGraphModel>
  </diagram>
</mxfile>
